<svg version="1.1" xmlns="http://www.w3.org/2000/svg" x="0px" y="0px"
	 width="358" height="620px">
  <defs>
    <filter id="grayscale">
      <feColorMatrix in="SourceGraphic" type="matrix"
        values="0.33 0.33 0.33 0.00 0.00
                0.33 0.33 0.33 0.00 0.00
                0.33 0.33 0.33 0.00 0.00
                0.00 0.00 0.00 0.15 0.00" />
    </filter>
  </defs>
<g transform='translate(0,90)'>
<g filter='url(#grayscale)' transform='scale(0.7) translate(-64,270)'>
  <!-- 耳 -->
  <circle cx="20"  cy="40" r="20" fill="#AA6333" />
  <circle cx="20"  cy="40" r="12" fill="#FDDDB3" />
  <circle cx="108" cy="40" r="20" fill="#AA6333" />
  <circle cx="108" cy="40" r="12" fill="#FDDDB3" />
  <!-- 顔 -->
  <circle cx="64"  cy="64" r="48" fill="#AA6333" />

  <ellipse cx="54" cy="70" rx="32" ry="40" fill="#FDDDB3" />
  <ellipse cx="74" cy="70" rx="32" ry="40" fill="#FDDDB3" />
  <ellipse cx="64" cy="73" rx="42" ry="40" fill="#FDDDB3" />

  <!-- ほっぺた -->
  <circle cx="40"  cy="88" r="14" fill="#FAC9BE" />
  <circle cx="88"  cy="88" r="14" fill="#FAC9BE" />

  <!-- 目 -->
  <ellipse cx="40" cy="62" rx="7" ry="8" fill="#6D4230" />
  <ellipse cx="88" cy="62" rx="7" ry="8" fill="#6D4230" />
  <ellipse cx="88" cy="60" rx="3" ry="3" fill="#FFFFFF" />
  <ellipse cx="40" cy="60" rx="3" ry="3" fill="#FFFFFF" />

  <!-- 鼻 -->
  <ellipse cx="64" cy="80" rx="7" ry="5" fill="#6D4230" />
  <path d="M64 80 64 90" fill="none" stroke="#6D4230"/>
  <path d="M64 90 A 3 3 0 1 1 56 90" fill="none" stroke="#6D4230"/>
  <path d="M72 90 A 3 3 0 1 1 64 90" fill="none" stroke="#6D4230"/>

  <circle cx='64' cy='64' r='80' stroke-width='5' stroke='#BBBBBB' fill='rgba(0,0,0,0)' />
</g>

<g filter='url(#grayscale)' transform='scale(0.7) translate(64,30)'>
  <g transform='scale(1.7) translate(16)'>
    <rect x="1" y="1" width="40" height="74" rx='5' ry='5' fill='#FFFFFF' stroke-width='2' stroke='#AAAAAA' />
    <rect x="2" y="65" width="38" height="9" fill='#AAAAAA' />
    <rect x="2" y="2" width="38" height="7" fill='#AAAAAA' />
    <circle cx="21" cy="70.5" r="4" fill="#DDDDDD" />
    <rect x="15" y="3.5" width="12" height="2" fill='#DDDDDD' ry='1' rx='1' />
  </g>
  <circle cx='64' cy='64' r='80' stroke-width='5' stroke='#BBBBBB' fill='rgba(0,0,0,0)' />
</g>

<g filter='url(#grayscale)' transform='scale(0.7) translate(64,510)'>
<g transform='scale(4) translate(0,7)'>
  <circle cx="6" cy="12" r="6" fill="#25AAE2" />
  <circle cx="13" cy="7" r="7" fill="#25AAE2" />
  <circle cx="21" cy="6" r="5" fill="#25AAE2" />
  <circle cx="26" cy="12" r="6" fill="#25AAE2" />
  <line x1="7" y1="13" x2="26" y2="13" stroke="#25AAE2" stroke-width="10" />
</g>

  <circle cx='64' cy='64' r='80' stroke-width='5' stroke='#BBBBBB' fill='rgba(0,0,0,0)' />
</g>

<g filter='url(#grayscale)' transform='scale(0.7) translate(192,270)'>
  <circle cx="64" cy="64" r="62" fill="rgba(0,0,0,0)" stroke='#FFFFFF' stroke-width='2'/>
  <line x1="64" y1="1" x2="64" y2="127" stroke="#FFFFFF" stroke-width="2" />
  <line x1="1" y1="64" x2="127" y2="64" stroke="#FFFFFF" stroke-width="2" />
  <line x1="11" y1="32" x2="117" y2="32" stroke="#FFFFFF" stroke-width="2" />
  <line x1="11" y1="96" x2="117" y2="96" stroke="#FFFFFF" stroke-width="2" />
  <path d="M64,2 Q24,64 64,126" stroke="#FFFFFF" stroke-width="2" fill='rgba(0,0,0,0)'/>
  <path d="M64,2 Q-16,64 64,126" stroke="#FFFFFF" stroke-width="2" fill='rgba(0,0,0,0)'/>
  <path d="M64,2 Q144,64 64,126" stroke="#FFFFFF" stroke-width="2" fill='rgba(0,0,0,0)'/>
  <path d="M64,2 Q104,64 64,126" stroke="#FFFFFF" stroke-width="2" fill='rgba(0,0,0,0)'/>

  <circle cx='64' cy='64' r='80' stroke-width='5' stroke='#BBBBBB' fill='rgba(0,0,0,0)' />
</g>

<g filter='url(#grayscale)' transform='scale(0.7) translate(320,30)'>
  <!-- 耳 -->
  <circle cx="20"  cy="40" r="20" fill="#AA6333" />
  <circle cx="20"  cy="40" r="12" fill="#FDDDB3" />
  <circle cx="108" cy="40" r="20" fill="#AA6333" />
  <circle cx="108" cy="40" r="12" fill="#FDDDB3" />
  <!-- 顔 -->
  <circle cx="64"  cy="64" r="48" fill="#AA6333" />

  <ellipse cx="54" cy="70" rx="32" ry="40" fill="#FDDDB3" />
  <ellipse cx="74" cy="70" rx="32" ry="40" fill="#FDDDB3" />
  <ellipse cx="64" cy="73" rx="42" ry="40" fill="#FDDDB3" />

  <!-- ほっぺた -->
  <circle cx="40"  cy="88" r="14" fill="#FAC9BE" />
  <circle cx="88"  cy="88" r="14" fill="#FAC9BE" />

  <!-- 目 
  <ellipse cx="40" cy="62" rx="7" ry="8" fill="#6D4230" />
  <ellipse cx="40" cy="60" rx="3" ry="3" fill="#FFFFFF" />-->
  <line x1="47" y1="62.7" x2="33" y2="55" stroke="#6D4230" stroke-width="3" />
  <line x1="47" y1="62" x2="33" y2="69" stroke="#6D4230" stroke-width="3" />
  <ellipse cx="88" cy="62" rx="7" ry="8" fill="#6D4230" />
  <ellipse cx="88" cy="60" rx="3" ry="3" fill="#FFFFFF" />

  <!-- 鼻 -->
  <ellipse cx="64" cy="80" rx="7" ry="5" fill="#6D4230" />
  <path d="M64 80 64 90" fill="none" stroke="#6D4230"/>
  <path d="M64 90 A 3 3 0 1 1 56 90" fill="none" stroke="#6D4230"/>
  <path d="M72 90 A 3 3 0 1 1 64 90" fill="none" stroke="#6D4230"/>

  <polygon points="16 0 25 27 2 11 30 11 7 27 16 0" fill="rgb(34,182,255)" transform='translate(4,45)'/>

  <circle cx='64' cy='64' r='80' stroke-width='5' stroke='#BBBBBB' fill='rgba(0,0,0,0)' />
</g>

<g filter='url(#grayscale)' transform='scale(0.7) translate(320,510)'>
  <!-- 耳 -->
  <circle cx="20"  cy="40" r="20" fill="#AA6333" />
  <circle cx="20"  cy="40" r="12" fill="#FDDDB3" />
  <circle cx="108" cy="40" r="20" fill="#AA6333" />
  <circle cx="108" cy="40" r="12" fill="#FDDDB3" />
  <!-- 顔 -->
  <circle cx="64"  cy="64" r="48" fill="#AA6333" />

  <ellipse cx="54" cy="70" rx="32" ry="40" fill="#FDDDB3" />
  <ellipse cx="74" cy="70" rx="32" ry="40" fill="#FDDDB3" />
  <ellipse cx="64" cy="73" rx="42" ry="40" fill="#FDDDB3" />

  <!-- ほっぺた -->
  <circle cx="40"  cy="88" r="14" fill="#FAC9BE" />
  <circle cx="88"  cy="88" r="14" fill="#FAC9BE" />

  <!-- 目 -->
  <ellipse cx="40" cy="62" rx="7" ry="8" fill="#6D4230" />
  <ellipse cx="88" cy="62" rx="7" ry="8" fill="#6D4230" />
  <ellipse cx="88" cy="60" rx="3" ry="3" fill="#FFFFFF" />
  <ellipse cx="40" cy="60" rx="3" ry="3" fill="#FFFFFF" />

  <!-- 鼻 -->
  <ellipse cx="64" cy="80" rx="7" ry="5" fill="#6D4230" />
  <path d="M64 80 64 90" fill="none" stroke="#6D4230"/>
  <path d="M64 90 A 3 3 0 1 1 56 90" fill="none" stroke="#6D4230"/>
  <path d="M72 90 A 3 3 0 1 1 64 90" fill="none" stroke="#6D4230"/>

  <!-- 汗 -->
  <ellipse cx="84" cy="40" rx="7" ry="9" fill="#00d7e9" />
  <polygon points="10,11 0,11 5,0" fill="#00d7e9" stroke="#00d7e9" transform="translate(79,24)"/>
  <ellipse cx="87" cy="40" rx="2" ry="4" fill="#FFFFFF" />

  <circle cx='64' cy='64' r='80' stroke-width='5' stroke='#BBBBBB' fill='rgba(0,0,0,0)' />
</g>

<g filter='url(#grayscale)' transform='scale(0.7) translate(448,270)'>
  <!-- 耳 -->
  <circle cx="20"  cy="40" r="20" fill="#AA6333" />
  <circle cx="20"  cy="40" r="12" fill="#FDDDB3" />
  <circle cx="108" cy="40" r="20" fill="#AA6333" />
  <circle cx="108" cy="40" r="12" fill="#FDDDB3" />
  <!-- 顔 -->
  <circle cx="64"  cy="64" r="48" fill="#AA6333" />

  <ellipse cx="54" cy="70" rx="32" ry="40" fill="#FDDDB3" />
  <ellipse cx="74" cy="70" rx="32" ry="40" fill="#FDDDB3" />
  <ellipse cx="64" cy="73" rx="42" ry="40" fill="#FDDDB3" />

  <!-- ほっぺた -->
  <circle cx="40"  cy="88" r="14" fill="#FAC9BE" />
  <circle cx="88"  cy="88" r="14" fill="#FAC9BE" />

  <!-- 目 -->
  <ellipse cx="40" cy="62" rx="7" ry="8" fill="#6D4230" />
  <ellipse cx="88" cy="62" rx="7" ry="8" fill="#6D4230" />
  <ellipse cx="88" cy="60" rx="3" ry="3" fill="#FFFFFF" />
  <ellipse cx="40" cy="60" rx="3" ry="3" fill="#FFFFFF" />

  <!-- 鼻 -->
  <ellipse cx="64" cy="80" rx="7" ry="5" fill="#6D4230" />
  <path d="M64 80 64 90" fill="none" stroke="#6D4230"/>
  <path d="M64 90 A 3 3 0 1 1 56 90" fill="none" stroke="#6D4230"/>
  <path d="M72 90 A 3 3 0 1 1 64 90" fill="none" stroke="#6D4230"/>

  <circle cx='64' cy='64' r='80' stroke-width='5' stroke='#BBBBBB' fill='rgba(0,0,0,0)' />
</g>
</g>
</svg>
